# AST/ASF file generated using VICON BodyLanguage
# -----------------------------------------------
:version 1.10
:name VICON
:units
  mass 1.0
  length 0.45
  angle deg
:documentation
   .ast/.asf automatically generated from VICON data using
   VICON BodyBuilder and BodyLanguage model FoxedUp or BRILLIANT.MOD
:root
   order TX TY TZ RX RY RZ
   axis XYZ
   position 0 0 0  
   orientation 0 0 0 
:bonedata
  begin
     id 1 
     name lhipjoint
     direction 0.756833 -0.6125 0.228138 
     length 2.53827 
     axis 0 0 0  XYZ
  end
  begin
     id 2 
     name lfemur
     direction 0.34202 -0.939693 0  
     length 6.51821  
     axis 0 0 20  XYZ
    dof rx ry rz
    limits (-160.0 20.0)
           (-70.0 70.0)
           (-60.0 70.0)
  end
  begin
     id 3 
     name ltibia
     direction 0.34202 -0.939693 0   
     length 6.99902   
     axis 0 0 20   XYZ
    dof rx
    limits (-10.0 170.0)
  end
  begin
     id 4 
     name lfoot
     direction 0.0951515 -0.261427 0.960522   
     length 1.92102   
     axis -90 7.62852e-016 20   XYZ
    dof rx rz
    limits (-45.0 90.0)
           (-70.0 20.0)
  end
  begin
     id 5 
     name ltoes
     direction 1.53539e-011 -4.21781e-011 1   
     length 0.964376   
     axis -90 7.62852e-016 20   XYZ
    dof rx
    limits (-90.0 20.0)
  end
  begin
     id 6 
     name rhipjoint
     direction -0.752153 -0.617542 0.230017   
     length 2.51754  
     axis 0 0 0  XYZ 
  end
  begin
     id 7 
     name rfemur
     direction -0.34202 -0.939693 0   
     length 6.82377   
     axis 0 0 -20   XYZ
    dof rx ry rz
    limits (-160.0 20.0)
           (-70.0 70.0)
           (-70.0 60.0)
  end
  begin
     id 8 
     name rtibia
     direction -0.34202 -0.939693 0   
     length 6.98689   
     axis 0 0 -20   XYZ
    dof rx
    limits (-10.0 170.0)
 end
 begin
     id 9 
     name rfoot
     direction -0.0900426 -0.24739 0.964723   
     length 2.03215  
     axis -90 -7.62852e-016 -20   XYZ
    dof rx rz
    limits (-45.0 90.0)
           (-20.0 70.0)
  end
  begin
     id 10 
     name rtoes
     direction -1.53466e-011 -4.22206e-011 1   
     length 1.0197   
     axis -90 -7.62852e-016 -20   XYZ
    dof rx
    limits (-90.0 20.0)
  end
  begin
     id 11 
     name lowerback
     direction 0.0184183 0.995705 -0.0907278   
     length 2.019   
     axis 0 0 0   XYZ
    dof rx ry rz
    limits (-20.0 45.0)
           (-30.0 30.0)
           (-30.0 30.0)
  end
  begin
     id 12 
     name upperback
     direction 0.00281055 0.998777 0.0493607   
     length 1.99623   
     axis 0 0 0   XYZ
    dof rx ry rz
    limits (-20.0 45.0)
           (-30.0 30.0)
           (-30.0 30.0)
  end
  begin
     id 13 
     name thorax
     direction -0.00665507 0.995706 0.092331   
     length 2.02811   
     axis 0 0 0   XYZ
    dof rx ry rz
    limits (-20.0 45.0)
           (-30.0 30.0)
           (-30.0 30.0)
  end
  begin
     id 14 
     name lowerneck
     direction -0.0960965 0.994358 0.0449225   
     length 1.71265   
     axis 0 0 0   XYZ
    dof rx ry rz
    limits (-20.0 45.0)
           (-30.0 30.0)
           (-30.0 30.0)
  end
  begin
     id 15 
     name upperneck
     direction 0.13642 0.985357 -0.102278   
     length 1.73016   
     axis 0 0 0   XYZ
    dof rx ry rz
    limits (-20.0 45.0)
           (-30.0 30.0)
           (-30.0 30.0)
  end
  begin
     id 16
     name head
     direction 0.0556079 0.997632 -0.040479  
     length 1.74275  
     axis 0 0 0   XYZ
    dof rx ry rz
    limits (-20.0 45.0)
           (-30.0 30.0)
           (-30.0 30.0)
  end
  begin
     id 17 
     name lclavicle
     direction 0.90877 0.417247 -0.00652364  
     length 3.25514  
     axis 0 0 0   XYZ
    dof ry rz
    limits (-20.0 10.0)
           (0.0 20.0)
  end
  begin
     id 18 
     name lhumerus
     direction 1 -4.48949e-011 8.31417e-028   
     length 4.84834   
     axis 180 -30 -90   XYZ
    dof rx ry rz
    limits (-60.0 90.0)
           (-90.0 90.0)
           (-90.0 90.0)
  end
  begin
     id 19
     name lradius
     direction 1 -4.48984e-011 3.45616e-027   
     length 2.99713   
     axis 180 -30 -90   XYZ
    dof rx
    limits (-10.0 170.0)
  end
  begin
     id 20
     name lwrist
     direction 1 -4.4891e-011 4.0479e-027   
     length 1.49857   
     axis -1.61768e-015 90 90   XYZ
    dof ry
    limits (-180.0 0.0)
 end
  begin
     id 21 
     name lhand
     direction 1 -4.49025e-011 8.0958e-027   
     length 0.693987   
     axis -5.16581e-015 90 90   XYZ
    dof rx rz
    limits (-90.0 90.0)
           (-45.0 45.0)
  end
  begin
     id 22 
     name lfingers
     direction 1 -4.4888e-011 1.61916e-026   
     length 0.55951   
     axis -1.03316e-014 90 90   XYZ
    dof rx
    limits (0.0 90.0)
  end
  begin
     id 23
     name lthumb
     direction 0.707107 -6.3493e-011 0.707107   
     length 0.803348   
     axis -90 45 2.85299e-015   XYZ
    dof rx rz
    limits (-45.0 45.0)
           (-45.0 45.0)
  end
  begin
     id 24 
     name rclavicle
     direction -0.906655 0.41906 0.0486307   
     length 3.3311  
     axis 0 0 0   XYZ 
    dof ry rz
    limits (-10.0 20.0)
           (-20.0 0.0)
  end
  begin
     id 25 
     name rhumerus
     direction -1 -4.48959e-011 6.37764e-018  
     length 4.93457   
     axis 180 30 90   XYZ
    dof rx ry rz
    limits (-90.0 60.0)
           (-90.0 90.0)
           (-90.0 90.0)
  end
  begin
     id 26 
     name rradius
     direction -1 -4.48957e-011 2.20847e-027   
     length 3.3443   
     axis 180 30 90   XYZ
    dof rx
    limits (-10.0 170.0)
  end
  begin
     id 27 
     name rwrist
     direction -1 -4.49008e-011 4.0479e-027   
     length 1.67215   
     axis -1.61768e-015 -90 -90   XYZ
    dof ry
    limits (-180.0 0.0)
  end
  begin
     id 28
     name rhand
     direction -1 -4.49013e-011 8.0958e-027   
     length 0.677363   
     axis -5.16581e-015 -90 -90   XYZ
    dof rx rz
    limits (-90.0 90.0)
           (-45.0 45.0)
  end
  begin
     id 29
     name rfingers
     direction -1 -4.48832e-011 1.61916e-026   
     length 0.546107   
     axis -1.03316e-014 -90 -90   XYZ
    dof rx
    limits (0.0 90.0)
  end
  begin
     id 30
     name rthumb
     direction -0.707107 -6.34895e-011 0.707107   
     length 0.784104   
     axis -90 -45 -2.85299e-015   XYZ
    dof rx rz
    limits (-45.0 45.0)
           (-45.0 45.0)
  end
:hierarchy
  begin
    root lhipjoint rhipjoint lowerback
    lhipjoint lfemur
    lfemur ltibia
    ltibia lfoot
    lfoot ltoes
    rhipjoint rfemur
    rfemur rtibia
    rtibia rfoot
    rfoot rtoes
    lowerback upperback
    upperback thorax
    thorax lowerneck lclavicle rclavicle
    lowerneck upperneck
    upperneck head
    lclavicle lhumerus
    lhumerus lradius
    lradius lwrist
    lwrist lhand lthumb
    lhand lfingers
    rclavicle rhumerus
    rhumerus rradius
    rradius rwrist
    rwrist rhand rthumb
    rhand rfingers
  end

#!OML:ASF H:\Terrain\Patient Classification 1\junglegym\FridayTest\junglegym.ASF
:FULLY-SPECIFIED
:DEGREES
142
root -7.87539 15.5819 0.0545187 62.8658 -83.999 -72.4863
lowerback 6.21856 -1.00215 4.41403
upperback -4.41535 -0.763171 3.2746
thorax -8.17298 -0.555909 1.0893
lowerneck 6.15945 2.96592 -14.3261
upperneck 38.7788 -1.14131 9.26341
head 11.8451 -2.74382 5.8795
rclavicle 5.1684e-015 -2.06736e-014
rhumerus 101.585 -24.4297 -57.1583
rradius 39.0356
rwrist 0.7398
rhand 3.25324 22.8753
rfingers 7.12502
rthumb 28.7025 -4.93926
lclavicle 5.1684e-015 -2.06736e-014
lhumerus 98.5136 24.7609 62.8804
lradius 40.6577
lwrist -25.1506
lhand -4.37935 25.8471
lfingers 7.12502
lthumb 21.3896 54.6864
rfemur -21.5093 -2.45011 25.8686
rtibia 87.9972
rfoot -11.4512 -3.68052
rtoes 15.5116
lfemur -8.44003 15.9326 -16.0588
ltibia 89.9375
lfoot -2.16624 0.563851
ltoes -25.0317
143
root -7.66036 15.5825 0.0551754 65.6656 -83.2876 -74.0586
lowerback 5.92793 -1.08592 5.15839
upperback -4.73983 -0.815774 3.38298
thorax -8.37137 -0.632983 0.800573
lowerneck 6.53796 3.07477 -13.6882
upperneck 38.8372 -1.10571 9.22007
head 11.7848 -2.66426 5.74445
rclavicle 4.77083e-015 1.39149e-014
rhumerus 101.487 -24.3401 -57.6362
rradius 39.326
rwrist 1.06303
rhand 3.69126 22.9302
rfingers 7.12502
rthumb 29.1209 -4.81274
lclavicle 4.77083e-015 1.39149e-014
lhumerus 97.8323 25.1158 61.896
lradius 41.3587
lwrist -24.4952
lhand -4.20084 24.1094
lfingers 7.12502
lthumb 21.5611 52.9292
rfemur -20.9788 -2.34709 26.5473
rtibia 87.6819
rfoot -10.9163 -3.24826
rtoes 21.3675
lfemur -7.68625 16.1196 -15.0462
ltibia 89.4992
lfoot -0.529553 0.211547
ltoes -29.8469
144
root -7.45175 15.5902 0.0607525 65.9174 -82.7302 -73.0866
lowerback 5.44439 -1.08053 5.89354
upperback -4.88723 -0.791896 3.13106
thorax -8.26765 -0.674508 0.114538
lowerneck 6.84072 2.92787 -12.5232
upperneck 38.7069 -1.41559 9.22345
head 11.6991 -2.64184 5.50692
rclavicle 6.95746e-016 9.14409e-015
rhumerus 101.138 -25.1058 -57.9747
rradius 39.7332
rwrist 1.02384
rhand 3.85987 22.9943
rfingers 7.12502
rthumb 29.2819 -4.72061
lclavicle 6.95746e-016 9.14409e-015
lhumerus 97.7374 25.2058 60.945
lradius 41.9952
lwrist -23.6969
lhand -3.98411 16.817
lfingers 7.12502
lthumb 21.7692 45.6127
rfemur -20.4765 -3.00166 27.0402
rtibia 87.2816
rfoot -9.15437 -4.93752
rtoes 4.78875
lfemur -6.91982 16.0267 -14.3776
ltibia 88.9106
lfoot 1.25737 -0.0565307
ltoes -29.6803
145
root -7.25699 15.6034 0.0637873 60.224 -83.7735 -66.3557
lowerback 4.97025 -0.799796 4.99915
upperback -4.90746 -0.556001 2.53004
thorax -7.98669 -0.515865 -0.0636363
lowerneck 6.84031 2.74896 -12.1811
upperneck 38.8128 -1.78265 9.49261
head 11.7886 -2.73322 5.53844
rclavicle 1.22253e-014 -1.98785e-014
rhumerus 100.784 -26.0665 -57.5745
rradius 39.9817
rwrist 0.852871
rhand 3.58431 22.949
rfingers 7.12502
rthumb 29.0188 -4.81152
lclavicle 1.22253e-014 -1.98785e-014
lhumerus 98.7212 24.2954 61.7263
lradius 41.9365
lwrist -24.0723
lhand -8.92515 6.58429
lfingers 7.12502
lthumb 17.0185 35.8588
rfemur -19.7175 -3.63629 25.3963
rtibia 87.0575
rfoot -7.55803 -5.53661
rtoes -8.62071
lfemur -5.73509 15.7403 -15.9034
ltibia 87.9234
lfoot 2.82219 0.488312
ltoes -27.3369
146
root -7.04787 15.6147 0.0529614 53.467 -84.7388 -58.1094
lowerback 4.11842 -0.832138 3.29825
upperback -5.07024 -0.777057 2.74728
thorax -7.63354 -0.521499 1.12555
lowerneck 6.79385 2.92853 -12.9998
upperneck 38.8985 -1.46071 9.37978
head 11.8027 -2.70873 5.66705
rclavicle 3.8763e-015 -2.22639e-014
rhumerus 101.461 -25.4817 -57.4021
rradius 40.0632
rwrist 0.930244
rhand 3.25718 22.9112
rfingers 7.12502
rthumb 28.7063 -4.90266
lclavicle 3.8763e-015 -2.22639e-014
lhumerus 99.2049 24.58 62.8234
lradius 41.4531
lwrist -24.6787
lhand -8.12716 8.64944
lfingers 7.12502
lthumb 17.7865 37.856
rfemur -19.5392 -3.33715 23.6155
rtibia 87.023
rfoot -7.84047 -3.00613
rtoes 15.8495
lfemur -5.31264 15.6861 -17.4666
ltibia 87.0258
lfoot 4.02374 1.27018
ltoes -27.943
147
root -6.82528 15.6235 0.0480519 55.6094 -84.2898 -58.7382
lowerback 3.48683 -0.948548 3.70934
upperback -5.42764 -0.931344 2.96027
thorax -7.65702 -0.625663 1.13266
lowerneck 7.10844 3.16079 -13.3263
upperneck 38.987 -1.30482 9.67186
head 11.7573 -2.67834 5.85306
rclavicle -1.76918e-014 -5.56597e-015
rhumerus 101.726 -25.0677 -57.8274
rradius 40.1036
rwrist 0.999191
rhand 3.02237 22.9386
rfingers 7.12502
rthumb 28.4819 -4.91308
lclavicle -1.76918e-014 -5.56597e-015
lhumerus 98.4843 25.1362 62.3721
lradius 41.9537
lwrist -24.0835
lhand -4.06885 16.7228
lfingers 7.12502
lthumb 21.6878 45.528
rfemur -19.4734 -3.72015 24.1126
rtibia 86.5924
rfoot -6.50957 -2.92603
rtoes 3.8795
lfemur -5.18363 15.7934 -16.9565
ltibia 86.4192
lfoot 5.01767 1.75454
ltoes -31.1842
148
root -6.60079 15.6304 0.0404089 57.7624 -83.4521 -59.8967
lowerback 3.28651 -0.743264 4.90051
upperback -5.567 -0.605177 2.56854
thorax -7.713 -0.550253 0.0237361
lowerneck 7.26839 2.77732 -11.9327
upperneck 39.182 -1.92654 9.50291
head 11.89 -2.7978 5.50158
rclavicle 8.24956e-015 -4.37326e-015
rhumerus 100.845 -26.2401 -57.9268
rradius 40.5133
rwrist 0.698403
rhand 2.70796 22.7196
rfingers 7.12502
rthumb 28.1815 -5.18195
lclavicle 8.24956e-015 -4.37326e-015
lhumerus 98.2409 24.6439 61.5957
lradius 43.0408
lwrist -23.0691
lhand -4.84159 25.2487
lfingers 7.12502
lthumb 20.9456 54.1378
rfemur -18.7362 -4.00992 24.9523
rtibia 85.9925
rfoot -5.05695 -2.67037
rtoes -6.91359
lfemur -4.48085 15.7413 -15.792
ltibia 85.7966
lfoot 5.8334 2.06306
ltoes -34.829
149
root -6.38034 15.6388 0.0303416 50.8525 -84.0623 -52.0676
lowerback 3.07317 -0.448848 4.12638
upperback -5.60701 -0.306922 1.85396
thorax -7.61094 -0.375014 -0.329021
lowerneck 7.0902 2.2526 -10.4499
upperneck 39.718 -2.69744 9.12551
head 12.255 -2.99336 5.0518
rclavicle 4.12478e-015 -1.76918e-014
rhumerus 99.6194 -27.7501 -57.2334
rradius 41.2762
rwrist 0.00751832
rhand 2.38542 22.2523
rfingers 7.12502
rthumb 27.8731 -5.6997
lclavicle 4.12478e-015 -1.76918e-014
lhumerus 98.5045 24.017 61.3867
lradius 43.7039
lwrist -22.4013
lhand -5.48333 27.5749
lfingers 7.12502
lthumb 20.329 56.531
rfemur -18.0001 -4.44485 23.5874
rtibia 85.6324
rfoot -3.76442 -1.51516
rtoes -13.5716
lfemur -3.57176 15.386 -17.0096
ltibia 84.7651
lfoot 6.6706 2.80955
ltoes -36.7096
150
root -6.15155 15.6415 0.0355596 38.5148 -85.0203 -38.882
lowerback 3.00707 -0.885523 2.18453
upperback -5.5601 -1.00246 2.24975
thorax -7.49562 -0.590385 1.23512
lowerneck 6.50728 2.7787 -11.9053
upperneck 40.1549 -1.73715 8.80901
head 12.4578 -2.80052 5.27483
rclavicle 7.85199e-015 -1.31198e-014
rhumerus 100.73 -26.6139 -57.1872
rradius 41.6721
rwrist -0.231131
rhand 2.1015 22.3772
rfingers 7.12502
rthumb 27.6017 -5.61851
lclavicle 7.85199e-015 -1.31198e-014
lhumerus 97.937 25.5046 61.7614
lradius 43.742
lwrist -22.7104
lhand -4.96271 25.8332
lfingers 7.12502
lthumb 20.8292 54.7351
rfemur -17.2703 -4.87508 21.4415
rtibia 85.423
rfoot -2.86872 -0.307037
rtoes -7.57145
lfemur -2.57424 14.9675 -19.1105
ltibia 83.5294
lfoot 7.58938 3.77132
ltoes -38.3841
